{
	"asset":{
		"generator":"Khronos glTF Blender I/O v4.0.44",
		"version":"2.0"
	},
	"scene":0,
	"scenes":[
		{
			"name":"Scene",
			"nodes":[
				0
			]
		}
	],
	"nodes":[
		{
			"mesh":0,
			"name":"Torus"
		}
	],
	"materials":[
		{
			"doubleSided":true,
			"name":"Wood",
			"pbrMetallicRoughness":{
				"baseColorTexture":{
					"index":0
				},
				"metallicFactor":0,
				"roughnessFactor":0.5
			}
		}
	],
	"meshes":[
		{
			"name":"Torus",
			"primitives":[
				{
					"attributes":{
						"POSITION":0,
						"NORMAL":1,
						"TEXCOORD_0":2
					},
					"indices":3,
					"material":0
				}
			]
		}
	],
	"textures":[
		{
			"sampler":0,
			"source":0
		}
	],
	"images":[
		{
			"mimeType":"image/jpeg",
			"name":"wood",
			"uri":"wood.jpg"
		}
	],
	"accessors":[
		{
			"bufferView":0,
			"componentType":5126,
			"count":931,
			"max":[
				1.25,
				0.5,
				1.25
			],
			"min":[
				-1.25,
				0,
				-1.25
			],
			"type":"VEC3"
		},
		{
			"bufferView":1,
			"componentType":5126,
			"count":931,
			"type":"VEC3"
		},
		{
			"bufferView":2,
			"componentType":5126,
			"count":931,
			"type":"VEC2"
		},
		{
			"bufferView":3,
			"componentType":5123,
			"count":3456,
			"type":"SCALAR"
		}
	],
	"bufferViews":[
		{
			"buffer":0,
			"byteLength":11172,
			"byteOffset":0,
			"target":34962
		},
		{
			"buffer":0,
			"byteLength":11172,
			"byteOffset":11172,
			"target":34962
		},
		{
			"buffer":0,
			"byteLength":7448,
			"byteOffset":22344,
			"target":34962
		},
		{
			"buffer":0,
			"byteLength":6912,
			"byteOffset":29792,
			"target":34963
		}
	],
	"samplers":[
		{
			"magFilter":9729,
			"minFilter":9987
		}
	],
	"buffers":[
		{
			"byteLength":36704,
			"uri":"Torus.bin"
		}
	]
}
